<svg width="64" height="64" xmlns="http://www.w3.org/2000/svg">
  <!-- 深色背景便于抠图 -->
  <rect width="64" height="64" fill="#000000"/>
  
  <!-- 主光粒子 - 中心星形光效 -->
  <g transform="translate(32,32)">
    <!-- 外层光环 -->
    <circle cx="0" cy="0" r="22" fill="url(#lightAura)" opacity="0.4"/>
    
    <!-- 十字光芒 -->
    <g opacity="0.8">
      <!-- 垂直光芒 -->
      <rect x="-1" y="-20" width="2" height="40" fill="url(#lightBeam)" rx="1"/>
      <!-- 水平光芒 -->
      <rect x="-20" y="-1" width="40" height="2" fill="url(#lightBeam)" rx="1"/>
      <!-- 对角光芒 -->
      <rect x="-1" y="-15" width="2" height="30" fill="url(#lightBeam)" rx="1" transform="rotate(45)"/>
      <rect x="-1" y="-15" width="2" height="30" fill="url(#lightBeam)" rx="1" transform="rotate(-45)"/>
    </g>
    
    <!-- 中层发光环 -->
    <circle cx="0" cy="0" r="8" fill="url(#lightRing)" opacity="0.9"/>
    
    <!-- 核心亮点 -->
    <circle cx="0" cy="0" r="4" fill="url(#lightCore)"/>
    <circle cx="0" cy="0" r="2" fill="#FFFFFF"/>
    
    <!-- 闪烁点 -->
    <circle cx="-12" cy="-8" r="1" fill="#FFFFFF" opacity="0.9"/>
    <circle cx="10" cy="-12" r="0.8" fill="#FFD700" opacity="0.8"/>
    <circle cx="-8" cy="11" r="1.2" fill="#FFFFFF" opacity="0.7"/>
    <circle cx="13" cy="7" r="0.6" fill="#FFD700" opacity="0.9"/>
    <circle cx="-15" cy="3" r="0.9" fill="#FFFFFF" opacity="0.6"/>
    <circle cx="6" cy="-15" r="0.7" fill="#FFD700" opacity="0.8"/>
    
    <!-- 小光束 -->
    <g opacity="0.6">
      <rect x="-0.5" y="-6" width="1" height="12" fill="#FFFFFF" rx="0.5" transform="rotate(30) translate(10,0)"/>
      <rect x="-0.5" y="-5" width="1" height="10" fill="#FFD700" rx="0.5" transform="rotate(-30) translate(-8,0)"/>
      <rect x="-0.5" y="-4" width="1" height="8" fill="#FFFFFF" rx="0.5" transform="rotate(60) translate(0,-10)"/>
    </g>
  </g>
  
  <!-- 渐变定义 -->
  <defs>
    <!-- 光环渐变 -->
    <radialGradient id="lightAura" cx="50%" cy="50%" r="50%">
      <stop offset="0%" style="stop-color:#FFFFFF;stop-opacity:0.3"/>
      <stop offset="30%" style="stop-color:#FFD700;stop-opacity:0.2"/>
      <stop offset="60%" style="stop-color:#FFA500;stop-opacity:0.1"/>
      <stop offset="100%" style="stop-color:#FFFFFF;stop-opacity:0"/>
    </radialGradient>
    
    <!-- 光束渐变 -->
    <linearGradient id="lightBeam" x1="0%" y1="0%" x2="0%" y2="100%">
      <stop offset="0%" style="stop-color:#FFFFFF;stop-opacity:0"/>
      <stop offset="10%" style="stop-color:#FFFFFF;stop-opacity:0.8"/>
      <stop offset="50%" style="stop-color:#FFD700;stop-opacity:1"/>
      <stop offset="90%" style="stop-color:#FFFFFF;stop-opacity:0.8"/>
      <stop offset="100%" style="stop-color:#FFFFFF;stop-opacity:0"/>
    </linearGradient>
    
    <!-- 发光环渐变 -->
    <radialGradient id="lightRing" cx="50%" cy="50%" r="50%">
      <stop offset="0%" style="stop-color:#FFFFFF;stop-opacity:0.8"/>
      <stop offset="50%" style="stop-color:#FFD700;stop-opacity:0.9"/>
      <stop offset="80%" style="stop-color:#FFA500;stop-opacity:0.6"/>
      <stop offset="100%" style="stop-color:#FFFFFF;stop-opacity:0"/>
    </radialGradient>
    
    <!-- 核心渐变 -->
    <radialGradient id="lightCore" cx="50%" cy="50%" r="50%">
      <stop offset="0%" style="stop-color:#FFFFFF;stop-opacity:1"/>
      <stop offset="60%" style="stop-color:#FFD700;stop-opacity:0.9"/>
      <stop offset="100%" style="stop-color:#FFA500;stop-opacity:0.7"/>
    </radialGradient>
  </defs>
</svg>